<svg width="240" height="160" viewBox="0 0 240 160" fill="none" xmlns="http://www.w3.org/2000/svg">
  <g>
    <!-- 半月形状 -->
    <path d="M120 30 
             A 50 50 0 1 1 120 130
             A 40 40 0 1 0 120 30
             Z" fill="#e13333" />
    
    <!-- 星星装饰 -->
    <path d="M160 40 L165 50 L175 50 L167 60 L170 70 L160 65 L150 70 L153 60 L145 50 L155 50 Z" fill="#e13333" />
    <path d="M145 60 L147 65 L152 65 L148 70 L150 75 L145 72 L140 75 L142 70 L138 65 L143 65 Z" fill="#e13333" />
    <path d="M130 50 L132 55 L137 55 L133 60 L135 65 L130 62 L125 65 L127 60 L123 55 L128 55 Z" fill="#e13333" />
    
    <!-- 波浪线 -->
    <path d="M90 90 Q 100 80, 110 90 Q 120 100, 130 90 Q 140 80, 150 90" stroke="#e13333" stroke-width="3" fill="none" />
  </g>
</svg> 