<svg width="800" height="600" viewBox="0 0 800 600" fill="none" xmlns="http://www.w3.org/2000/svg">
  <path d="M400 100C427.614 100 450 122.386 450 150V200H500C513.807 200 525 211.193 525 225C525 238.807 513.807 250 500 250H450V500H400V250H200C186.193 250 175 238.807 175 225C175 211.193 186.193 200 200 200H400V150C400 150 400 100 400 100Z" fill="white" fill-opacity="0.1"/>
  <path d="M400 120C416.569 120 430 133.431 430 150V220H500C505.523 220 510 224.477 510 230C510 235.523 505.523 240 500 240H430V480H420V240H200C194.477 240 190 235.523 190 230C190 224.477 194.477 220 200 220H420V150C420 141.716 411.046 120 400 120Z" fill="white" fill-opacity="0.2"/>
</svg> 