<?xml version="1.0" standalone="no"?><!DOCTYPE svg PUBLIC "-//W3C//DTD SVG 1.1//EN" "http://www.w3.org/Graphics/SVG/1.1/DTD/svg11.dtd"><svg t="1740674304907" class="icon" viewBox="0 0 1024 1024" version="1.1" xmlns="http://www.w3.org/2000/svg" p-id="15634" xmlns:xlink="http://www.w3.org/1999/xlink" width="200" height="200"><path d="M842.8 461.4c-13.3-13.3-31-20.6-49.8-20.6H650.4L551 114.1h-80.8v326.7H267.6c-1.7 0-3.2-0.9-4-2.3L233 386.1h0.1l25.2-138.5c0.5-2.9-1.7-5.5-4.6-5.5h-60.5c-2.1 0-4 1.4-4.5 3.5l-9.1 33.2c-1.1 4-6.5 4.7-8.6 1.1l-4.1-7.1c-0.8-1.4-2.4-2.3-4-2.3H91.7c-2.6 0-4.7 2.1-4.7 4.7v240.2c0 1.3 0.6 2.6 1.5 3.5l16.3 14.8c1.3 1.2 1.8 3 1.4 4.7l-21.9 80.2c-0.8 3 1.4 5.9 4.5 5.9h60.9c2 0 3.7-1.2 4.4-3.1l9.3-25.7c1.1-3.1 5.1-4.1 7.6-1.9l27.1 13.2c-1.1-1.8-1.9-3.4-2.3-4.6-3-8.2 4.1-16 4.1-16l234.4-2.6 9.6 8.9 18.7 35.6c2.6 0 7.4 7.2 7.4 9.8v266.1c0 2.6 2.1 4.7 4.7 4.7h72.7c2.1 0 3.9-16.9 4.5-18.9l75.7-255.4c0.6-2 2.4-3.3 4.5-3.3l-32.2 2.2-4.8-14.1 3.8-17.9s-1.3-11.9 12.8-10.8 96.2-0.6 96.2-0.6l91.2 4.8 38.6-1.3 29.9-38.6 8.9-14.7 23.6-18-57.3-60.9z m-518.3 77.9h-28.4v-27.6h28.4v27.6z m56.8 0h-28.4v-27.6h28.4v27.6z m56.7 0h-28.4v-27.6H438v27.6z m56.8 0h-28.4v-27.6h28.4v27.6z m56.7 0h-28.4v-27.6h28.4v27.6z m56.8 0h-28.4v-27.6h28.4v27.6z m56.8 0h-28.4v-27.6h28.4v27.6z m56.7 0h-28.4v-27.6h28.4v27.6z m56.8 0h-28.4v-27.6h28.4v27.6z" fill="#6094FF" p-id="15635"></path><path d="M447.5 897.8V653.4c0-6.1-4.9-11-11-11H225l-78.7-71.5c-2-1.8-4.6-2.9-7.4-2.9-4.6 0-8.8 2.9-10.3 7.2l-8.9 24.6H62l21.3-78.1c1.1-4-0.1-8.2-3.2-11l-15.8-14.3V258.5h68.6l3.7 6.3c2 3.4 5.5 5.5 9.5 5.5 5 0 9.3-3.3 10.6-8.1l8.7-32h57.3L199 360.5l-7.3-1.4 6.8 11.9 30.5 52.4c2 3.4 5.6 5.5 9.5 5.5h208.9V102h69.8l99.4 326.7h169.5c17.1 0 33.2 6.7 45.3 18.8l66.4 66.4 2.3 0.2c33 2.8 58.8 30.9 58.8 64v1.8c0 34.5-28 62.5-62.5 62.5H603.2c-4.9 0-9.1 3.1-10.5 7.8l-75.4 247.6h-69.8z m26-85.1c-6.1 0-11 4.9-11 11v48.1c0 6.1 4.9 11 11 11H498c4.9 0 9.1-3.1 10.5-7.8L602 567.8l14.5 4.4c-0.4 2.9 0.3 5.8 2 8.2 2.1 2.8 5.3 4.4 8.8 4.4h201.8c3.4 0 6.5-1.5 8.6-4.1l47-58.7-7.2-7.2h-75.7v-15H836c4.5 0 8.4-2.7 10.2-6.8 1.7-4.1 0.8-8.8-2.4-12L821 458.2c-9.3-9.3-21.6-14.4-34.7-14.4H223.6L127.5 279c-2-3.4-5.6-5.5-9.5-5.5H90.4c-6.1 0-11 4.9-11 11v205.2l10.1 9.4 19.2-70.3h73.2l-39.6 108.9c-1.5 4.2-0.4 8.9 2.9 11.9l35.6 32.4c2 1.8 4.7 2.9 7.4 2.9h248.2c6.1 0 11-4.9 11-11v-17.8h15v173.8c0 6.1 4.9 11 11 11h17.8v15h-17.8c-6.1 0-11 4.9-11 11v19.7c0 6.1 4.9 11 11 11h17.8v15h-17.7z m142.6-212.8c-4.9 0-9.1 3.1-10.5 7.8l-1.7 5.6c-1 3.4-0.4 6.9 1.7 9.7 2.1 2.8 5.3 4.4 8.8 4.4h286.9c23.6 0 42.8-19.2 42.8-42.8V578.2c0-22.9-16.2-43.1-38.6-48.1-0.8-0.2-1.6-0.3-2.4-0.3-3.4 0-6.5 1.5-8.6 4.1l-52.7 65.9H616.1z m-387.1 0c-4.6 0-8.6 2.8-10.3 7s-0.5 9 2.9 12.1l6.1 5.6c2 1.8 4.7 2.9 7.4 2.9h201.4c6.1 0 11-4.9 11-11v-5.6c0-6.1-4.9-11-11-11H229zM128.6 443.8c-4.9 0-9.3 3.3-10.6 8.1l-32.5 119c-0.9 3.3-0.2 6.8 1.9 9.6 2.1 2.7 5.3 4.3 8.7 4.3h5.4c4.6 0 8.8-2.9 10.3-7.2l43.3-119.1c1.2-3.4 0.7-7.1-1.3-10.1-2.1-2.9-5.4-4.7-9-4.7h-16.2z m333.9-15H601l-94.9-311.7h-43.7v70.1h28.7v15h-28.7v41.7h28.7v15h-28.7v169.9zM185.3 245.1c-4.9 0-9.3 3.3-10.6 8.1l-13.1 47.9c-0.8 2.8-0.4 5.9 1.1 8.4l8.1 13.9c2 3.4 5.5 5.5 9.5 5.5 5.3 0 9.9-3.8 10.8-9l11.2-61.8c0.6-3.2-0.3-6.5-2.4-9s-5.2-3.9-8.4-3.9h-6.2z" fill="#23294B" p-id="15636"></path></svg>