<?xml version="1.0" encoding="UTF-8"?>
<svg width="80" height="80" viewBox="0 0 80 80" fill="none" xmlns="http://www.w3.org/2000/svg">
  <!-- 船身 -->
  <path d="M10 40L20 55H60L70 40V35H10V40Z" fill="#1e5aa0" fill-opacity="0.1" stroke="#1e5aa0" stroke-width="1"/>
  <!-- 船舱 -->
  <rect x="25" y="30" width="10" height="10" fill="#1e5aa0" fill-opacity="0.15" stroke="#1e5aa0" stroke-width="1"/>
  <rect x="40" y="30" width="10" height="10" fill="#1e5aa0" fill-opacity="0.15" stroke="#1e5aa0" stroke-width="1"/>
  <rect x="55" y="30" width="10" height="10" fill="#1e5aa0" fill-opacity="0.15" stroke="#1e5aa0" stroke-width="1"/>
  <!-- 烟囱 -->
  <rect x="60" y="20" width="5" height="10" fill="#1e5aa0" fill-opacity="0.2" stroke="#1e5aa0" stroke-width="1"/>
  <!-- 水波 -->
  <path d="M5 45C10 42 15 47 20 45C25 43 30 47 35 45C40 43 45 47 50 45C55 43 60 47 65 45C70 43 75 47 80 45" stroke="#1e5aa0" stroke-opacity="0.3" stroke-width="1"/>
</svg> 